<svg width="29" height="53" viewBox="0 0 29 53" fill="none" xmlns="http://www.w3.org/2000/svg">
<path d="M8.12637 9.0725C8.12637 6.49488 9.33937 4.82699 10.4007 3.46237C11.1589 2.70425 11.917 1.94614 12.9784 1.49127C13.8881 1.0364 15.1011 0.733137 16.1625 1.33964L19.4982 3.00752C19.8015 3.15914 20.2563 3.61398 20.4079 3.91723C20.8628 4.52372 21.0145 5.28188 21.0145 6.04001C21.0145 6.49488 21.0145 12.4082 21.0145 12.8631C21.3177 12.2566 21.7725 11.9533 22.379 11.4985C22.8339 11.1952 23.592 10.892 24.1985 11.1952L27.5343 12.8631C27.6859 13.0147 27.8375 13.0147 27.9892 13.1663C28.2924 13.4696 28.444 14.2277 28.444 14.5309C28.444 14.5309 28.444 14.531 28.444 14.6826C28.444 15.1375 28.2925 15.5923 28.1408 16.0472C25.5632 22.1122 22.9855 28.1772 20.4079 34.0906C20.1047 34.6971 19.8015 35.3035 19.4982 35.7584L22.6823 34.0906C23.1372 33.7873 23.7437 33.6357 24.3502 33.9389C25.5632 34.5454 26.3213 34.8487 27.3827 35.4552C27.686 35.6068 27.8376 35.91 28.1408 36.0617C28.2925 36.3649 28.444 36.8198 28.444 37.123C28.444 37.123 28.444 37.123 28.444 37.2746C28.444 37.7295 28.2925 38.1844 28.1408 38.6393C27.686 39.549 27.0794 40.4588 26.1696 40.9137L6.76172 51.2241C6.30684 51.5274 5.70038 51.679 5.09388 51.3758C4.79063 51.2241 4.33574 50.9209 4.03249 50.7693C3.27437 50.3144 2.9711 50.1627 2.21298 49.7079C1.7581 49.4046 1.60652 49.4046 1.30327 49.253C1.00002 48.9498 1 48.4949 1 48.1916C1 48.1916 1 48.1916 1 48.04C1 47.5851 1.15164 47.1302 1.30327 46.6754C1.75814 45.7656 2.36462 44.8559 3.27437 44.401L13.4332 39.0941C13.4332 39.0941 11.7653 38.4876 11.3105 38.0328L10.2491 37.4263C9.79419 37.123 9.64256 36.9714 9.49094 36.8198C9.33932 36.6682 9.03612 36.3649 8.8845 36.0617C6.30688 32.7259 4.03247 29.8451 1.45486 26.5093C1.15161 26.2061 1.15159 25.9028 1.15159 25.4479V25.2963C1.15159 25.2963 1.15159 25.2963 1.15159 25.1447C1.30321 24.3865 1.60646 23.6284 1.90971 23.1736C2.21296 22.7187 2.66787 22.2638 3.27437 21.809C3.72924 21.5057 4.48738 21.2024 5.09388 21.5057L6.15527 21.9606L7.36825 22.5671L8.58123 23.1736C8.12636 20.2927 8.12637 11.9534 8.12637 9.0725Z" fill="#FFFF00" stroke="#231F20" stroke-linejoin="round"/>
<path d="M4.63876 51.2241C4.18389 50.7693 4.03223 50.3144 4.03223 50.0112C4.03223 49.5563 4.18387 49.1014 4.33549 48.6465C4.63874 47.7368 5.39685 46.827 6.3066 46.3721C12.8265 42.8848 19.3463 39.5491 25.8662 36.0617C26.3211 35.7584 27.0791 35.4552 27.6856 35.7584" stroke="#231F20" stroke-width="0.5" stroke-linecap="round" stroke-linejoin="round"/>
<path d="M8.58105 23.4762C8.8843 23.7794 9.64243 24.6891 10.0973 25.2956C10.5522 25.9021 11.1587 26.6603 11.6135 27.2668C11.6135 23.4762 11.6135 14.3787 11.6135 10.5881C11.6135 8.61696 12.6749 6.49421 14.0395 5.12959C14.7976 4.37146 15.5558 3.61331 16.4656 3.15844C17.072 2.85519 17.6786 2.24872 19.0432 2.85522" stroke="#231F20" stroke-linejoin="round"/>
<path d="M17.527 37.7289C18.74 36.6676 19.8013 35.3029 20.4078 33.9383C19.8013 35.3029 18.8916 36.6676 17.527 37.7289ZM17.527 37.7289C16.4656 38.6387 14.0396 39.3968 12.9782 38.7903C12.675 38.6387 11.7652 37.7289 11.6136 37.4257C9.03596 34.0899 7.06483 31.5123 4.48721 28.1766C3.72909 27.2668 4.48719 25.599 4.94206 24.8408C5.24531 24.386 5.70022 23.9311 6.30672 23.4762C6.7616 23.173 7.51974 22.8697 8.12623 23.173C8.12623 23.173 8.27788 23.3246 8.4295 23.4762" stroke="#231F20" stroke-linejoin="round"/>
<path d="M23.8955 15.8961C24.1988 14.9864 24.6537 14.5315 25.2602 14.0766C25.8667 13.6217 27.0797 12.8636 27.8378 13.3185" stroke="#231F20" stroke-linejoin="round"/>
<path d="M21.015 12.8638L20.8633 22.871C21.3182 21.658 21.9247 20.445 22.3795 19.3836C22.6828 18.7771 23.8958 15.8963 23.8958 15.8963" stroke="#231F20" stroke-linejoin="round"/>
</svg>
