<svg width="14" height="44" viewBox="0 0 14 44" fill="none" xmlns="http://www.w3.org/2000/svg">
<path d="M13.3486 6.26141C13.3486 5.26785 13.0647 3.99042 12.0711 3.42267C10.9356 2.71299 9.80014 2.14525 8.66464 1.43556C7.38721 0.725878 5.96784 1.43556 4.97429 2.14525C3.83879 2.99687 2.98718 3.99044 2.41943 5.12593C1.70974 6.26143 1.28393 7.53884 1.14199 8.81628C1.00006 9.95177 1.142 11.655 2.41943 12.3647C3.55492 13.0744 4.69041 13.6421 5.8259 14.3518C6.81946 14.9196 7.95497 14.6357 8.80659 14.0679C9.80015 13.5002 10.5098 12.7905 11.2195 12.0808C12.355 10.5195 13.3486 8.24852 13.3486 6.26141Z" fill="#FFFF00" stroke="#231F20" stroke-linejoin="round"/>
<path d="M5.96779 14.3523C3.27099 15.6297 1 19.462 1 22.3007C1 27.4104 1 32.6621 1 37.7718C1 38.7654 1.28387 40.0428 2.27742 40.6106C3.41292 41.3203 4.54842 41.888 5.68391 42.5977C6.67747 43.1654 7.81296 42.8815 8.66458 42.3138C9.65814 41.746 10.3678 41.0364 11.0775 40.3267C12.3549 38.7654 13.3485 36.6363 13.3485 34.5073C13.3485 29.3976 13.3485 24.1459 13.3485 19.0362C13.3485 18.0426 13.0646 16.7652 12.0711 16.1974C10.9356 15.4877 9.80008 14.92 8.66458 14.2103C8.52265 14.2103 8.52265 14.0684 8.38071 14.0684" fill="#FFFF00"/>
<path d="M5.96779 14.3523C3.27099 15.6297 1 19.462 1 22.3007C1 27.4104 1 32.6621 1 37.7718C1 38.7654 1.28387 40.0428 2.27742 40.6106C3.41292 41.3203 4.54842 41.888 5.68391 42.5977C6.67747 43.1654 7.81296 42.8815 8.66458 42.3138C9.65814 41.746 10.3678 41.0364 11.0775 40.3267C12.3549 38.7654 13.3485 36.6363 13.3485 34.5073C13.3485 29.3976 13.3485 24.1459 13.3485 19.0362C13.3485 18.0426 13.0646 16.7652 12.0711 16.1974C10.9356 15.4877 9.80008 14.92 8.66458 14.2103C8.52265 14.2103 8.52265 14.0684 8.38071 14.0684" stroke="#231F20" stroke-linejoin="round"/>
<path d="M1 22.4429C1 27.5526 1 32.8043 1 37.914" stroke="#231F20" stroke-width="0.5" stroke-linecap="round" stroke-linejoin="round"/>
<path d="M4.40625 24.2881C4.40625 29.3978 4.40625 34.6495 4.40625 39.7592" stroke="#231F20" stroke-width="0.5" stroke-linecap="round" stroke-linejoin="round"/>
<path d="M1 37.9141C1 38.9076 1.28387 40.1851 2.27742 40.7528" stroke="#231F20" stroke-width="0.5" stroke-linecap="round" stroke-linejoin="round"/>
<path d="M13.3486 34.6488C13.3486 29.5391 13.3486 24.2875 13.3486 19.1777" stroke="#231F20" stroke-width="0.5" stroke-linecap="round" stroke-linejoin="round"/>
<path d="M8.66406 14.3525L12.0705 16.1977" stroke="#231F20" stroke-width="0.5" stroke-linecap="round" stroke-linejoin="round"/>
<path d="M8.66392 14.3515C8.52239 14.3515 8.52239 14.21 8.38086 14.21" stroke="#231F20" stroke-width="0.5" stroke-linecap="round" stroke-linejoin="round"/>
<path d="M5.68446 42.7392L2.41992 40.894" stroke="#231F20" stroke-width="0.5" stroke-linecap="round" stroke-linejoin="round"/>
<path d="M5.68359 42.7393C6.67715 43.3071 7.81264 43.0232 8.66427 42.4555C9.65782 41.8877 10.3675 41.178 11.0772 40.4683C12.3546 38.907 13.3482 36.778 13.3482 34.6489" stroke="#231F20" stroke-width="0.5" stroke-linecap="round" stroke-linejoin="round"/>
<path d="M4.40625 39.9009C4.40625 40.8944 4.69013 42.1719 5.68368 42.7396" stroke="#231F20" stroke-width="0.5" stroke-linecap="round" stroke-linejoin="round"/>
<path d="M12.0708 16.1976C11.0773 15.6299 9.94179 15.9138 9.09017 16.4815C8.09661 17.0493 7.38693 17.759 6.67725 18.4686C5.39982 20.03 4.40625 22.159 4.40625 24.2881" stroke="#231F20" stroke-width="0.5" stroke-linecap="round" stroke-linejoin="round"/>
<path d="M13.3477 6.26208C13.3477 5.26852 13.0639 3.99109 12.0703 3.42334" stroke="#231F20" stroke-width="0.5" stroke-linecap="round" stroke-linejoin="round"/>
<path d="M8.66406 1.29395L12.0705 3.28107" stroke="#231F20" stroke-width="0.5" stroke-linecap="round" stroke-linejoin="round"/>
<path d="M5.68446 14.3524L2.41992 12.3652" stroke="#231F20" stroke-width="0.5" stroke-linecap="round" stroke-linejoin="round"/>
<path d="M8.66464 1.29396C7.38721 0.584277 5.96784 1.29396 4.97429 2.00365C3.83879 2.85527 2.98718 3.84883 2.41943 4.98433C1.70974 6.11982 1.28393 7.39726 1.14199 8.6747C1.00006 9.81019 1.142 11.5134 2.41943 12.2231" stroke="#231F20" stroke-width="0.5" stroke-linecap="round" stroke-linejoin="round"/>
<path d="M12.0709 3.28078C10.7935 2.57109 9.37409 3.28078 8.38054 3.99046C7.24504 4.84208 6.39342 5.83563 5.82567 6.97112C5.11598 8.10662 4.69018 9.38406 4.54824 10.6615C4.40631 11.797 4.54824 13.5002 5.82567 14.2099" stroke="#231F20" stroke-width="0.5" stroke-linecap="round" stroke-linejoin="round"/>
<path d="M5.96779 14.3525C3.27099 15.63 1 19.4623 1 22.301" stroke="#231F20" stroke-width="0.5" stroke-linecap="round" stroke-linejoin="round"/>
<path d="M5.68359 14.3517C6.67715 14.9194 7.81264 14.6355 8.66427 14.0678C9.65782 13.5 10.3675 12.7903 11.0772 12.0807C12.3546 10.5193 13.3482 8.39028 13.3482 6.26123" stroke="#231F20" stroke-width="0.5" stroke-linecap="round" stroke-linejoin="round"/>
<path d="M13.3477 19.1776C13.3477 18.184 13.0639 16.9066 12.0703 16.3389" stroke="#231F20" stroke-width="0.5" stroke-linecap="round" stroke-linejoin="round"/>
</svg>
