<svg width="28" height="44" viewBox="0 0 28 44" fill="none" xmlns="http://www.w3.org/2000/svg">
<path d="M12.213 41.0995C8.23878 36.5576 1.14194 28.4672 1 21.6542L1.14193 21.5122C1.28387 16.2606 3.27099 11.2928 6.67748 7.17663C8.23878 5.04757 10.3678 3.34433 12.4969 2.20884C14.7679 0.789467 17.4647 0.647528 19.8776 1.64109L23.1422 3.48626V3.34432C25.4131 5.04757 26.5486 7.8863 26.4067 10.5831V10.725C26.1228 18.1058 17.8905 36.6995 15.1937 42.9447H15.3356L12.213 41.0995Z" fill="#FFFF00" stroke="#231F20" stroke-width="0.5" stroke-linecap="round" stroke-linejoin="round"/>
<path d="M23.2834 3.48577L20.0189 1.6406C17.6059 0.64704 14.7672 0.788979 12.6382 2.20835C10.3672 3.48578 8.38004 5.18902 6.81873 7.17614C3.41225 11.2923 1.42514 16.402 1.2832 21.5118C1.42514 28.3247 8.52198 36.4151 12.4962 40.9571L15.7608 42.8023C18.5995 36.5571 26.6899 18.1053 26.9738 10.5826C26.6899 7.88581 25.4125 5.04708 23.2834 3.48577ZM11.0768 20.944C10.793 16.9698 12.7801 13.2794 16.4704 11.5762C16.6124 11.8601 16.6124 12.2859 16.6124 12.5697C16.3285 16.2601 14.1995 19.2408 11.0768 20.944Z" stroke="#231F20" stroke-linejoin="round"/>
<path d="M16.3281 11.5762C16.4701 11.86 16.4701 12.2859 16.4701 12.5697" stroke="#231F20" stroke-width="0.5" stroke-linecap="round" stroke-linejoin="round"/>
<path d="M23.2845 3.48532C20.8716 2.49177 18.0328 2.63371 15.9038 4.05307C13.6328 5.33051 11.6457 7.03375 10.0844 9.02087C6.81982 13.137 4.69077 18.2468 4.54883 23.3565" stroke="#231F20" stroke-width="0.5" stroke-linecap="round" stroke-linejoin="round"/>
<path d="M4.40625 23.499C4.54819 30.312 11.645 38.5443 15.4773 42.9444" stroke="#231F20" stroke-width="0.5" stroke-linecap="round" stroke-linejoin="round"/>
<path d="M11.0766 20.8019C10.7927 16.8277 12.7798 13.1373 16.4702 11.4341" stroke="#231F20" stroke-width="0.5" stroke-linecap="round" stroke-linejoin="round"/>
<path d="M16.3281 11.5756C17.0378 11.2918 17.8894 11.4337 18.5991 11.7176" stroke="#231F20" stroke-width="0.5" stroke-linecap="round" stroke-linejoin="round"/>
<path d="M12.3556 22.505C11.6459 22.2211 11.362 21.5114 11.0781 20.8018" stroke="#231F20" stroke-width="0.5" stroke-linecap="round" stroke-linejoin="round"/>
<path d="M18.5996 11.5762C19.4512 12.2859 20.019 13.2794 19.877 14.5568" stroke="#231F20" stroke-width="0.5" stroke-linecap="round" stroke-linejoin="round"/>
<path d="M19.7349 14.5566C19.593 16.6857 18.8833 18.6728 17.4639 20.2341C16.7542 21.0857 16.0445 21.7954 15.051 22.3632C14.1994 22.9309 12.9219 23.0729 12.0703 22.5051" stroke="#231F20" stroke-width="0.5" stroke-linecap="round" stroke-linejoin="round"/>
<path d="M16.4711 12.7119C16.3292 16.1184 14.2001 19.5249 10.9355 20.8023" stroke="#231F20" stroke-width="0.5" stroke-linecap="round" stroke-linejoin="round"/>
</svg>
