<svg width="45" height="44" viewBox="0 0 45 44" fill="none" xmlns="http://www.w3.org/2000/svg">
<path d="M22.5647 21.86V42.72L1 32.29V11.43L22.5647 1V19.323" fill="#FFFF00"/>
<path d="M22.5647 21.86V42.72L1 32.29V11.43L22.5647 1V19.323" stroke="#231F20" stroke-linejoin="round"/>
<path d="M1 11.43L22.5647 1V21.86" fill="#FFFF00"/>
<path d="M1 11.43L22.5647 1V21.86" stroke="#231F20" stroke-width="0.5" stroke-linecap="round" stroke-linejoin="round"/>
<path d="M18.3359 19.3227L22.5643 23.5511C26.3699 23.5511 30.0344 24.6786 33.84 24.6786C32.7124 25.1015 31.7258 25.5243 30.5982 25.9471C30.3164 26.0881 30.0344 26.37 30.0344 26.6519V27.4976C30.0344 27.9204 30.3163 28.0613 30.7392 28.2023C31.162 28.3432 31.5848 28.3432 31.8667 28.2023C35.6723 26.6519 39.4778 25.2424 43.4243 23.692C43.7062 23.5511 43.9881 22.1416 43.9881 21.8597V21.014C43.9881 20.7322 43.7062 20.4503 43.4243 20.3093C39.6188 18.7589 35.8132 17.3495 31.8667 15.7991C31.4439 15.6581 31.0211 15.6581 30.7392 15.7991C30.3163 15.94 30.0344 16.2219 30.0344 16.5038V17.3494C30.0344 17.6313 30.3164 17.9132 30.5982 18.0542C31.7258 18.477 32.7124 18.8999 33.84 19.3227C31.4439 19.3227 29.0479 19.3227 26.6518 19.3227C24.5376 19.3227 20.5911 19.3227 18.3359 19.3227Z" fill="#FFFF00" stroke="#231F20" stroke-linejoin="round"/>
<path d="M33.8397 24.5376C32.7122 24.9604 31.7256 25.3833 30.598 25.8061C30.3161 25.947 30.0342 26.2289 30.0342 26.5108V27.3565" fill="#FFFF00"/>
<path d="M33.8397 24.5376C32.7122 24.9604 31.7256 25.3833 30.598 25.8061C30.3161 25.947 30.0342 26.2289 30.0342 26.5108V27.3565" stroke="#231F20" stroke-width="0.5" stroke-linecap="round" stroke-linejoin="round"/>
<path d="M43.9879 22.4235V21.014C43.706 20.3093 43.1422 20.1684 42.8603 20.0274C39.0548 18.477 35.8129 17.3495 31.8665 15.7991C31.4436 15.6581 31.0208 15.6581 30.7389 15.7991C30.3161 15.94 30.0342 16.2219 30.0342 16.5038V17.3494" fill="#FFFF00"/>
<path d="M43.9879 22.4235V21.014C43.706 20.3093 43.1422 20.1684 42.8603 20.0274C39.0548 18.477 35.8129 17.3495 31.8665 15.7991C31.4436 15.6581 31.0208 15.6581 30.7389 15.7991C30.3161 15.94 30.0342 16.2219 30.0342 16.5038V17.3494" stroke="#231F20" stroke-width="0.5" stroke-linecap="round" stroke-linejoin="round"/>
<path d="M22.5644 24.5375C27.0746 24.5375 31.5849 24.5375 36.0951 24.5375C34.2629 25.2423 32.4306 25.947 30.5983 26.6517C30.3164 26.7927 30.0345 27.0746 30.0345 27.3565C30.0345 27.7793 30.3164 27.9203 30.7392 28.0612C31.1621 28.2021 31.5849 28.2021 31.8668 28.0612C35.6723 26.5108 39.4779 25.1014 43.4244 23.551C43.9881 23.2691 43.9882 22.5643 43.9882 22.2824C43.9882 22.0005 44.1291 21.5777 43.4244 21.0139C39.6188 19.4635 35.8133 18.0541 31.8668 16.5037C31.4439 16.3627 31.0211 16.3627 30.7392 16.5037C30.3164 16.6446 30.0345 16.9265 30.0345 17.2084C30.0345 17.4903 30.3164 17.7722 30.5983 17.9131C32.4306 18.6178 34.2629 19.3226 36.0951 20.0273C30.4573 20.0273 24.8195 20.0273 19.1816 20.0273" fill="#FFFF00"/>
<path d="M22.5644 24.5375C27.0746 24.5375 31.5849 24.5375 36.0951 24.5375C34.2629 25.2423 32.4306 25.947 30.5983 26.6517C30.3164 26.7927 30.0345 27.0746 30.0345 27.3565C30.0345 27.7793 30.3164 27.9203 30.7392 28.0612C31.1621 28.2021 31.5849 28.2021 31.8668 28.0612C35.6723 26.5108 39.4779 25.1014 43.4244 23.551C43.9881 23.2691 43.9882 22.5643 43.9882 22.2824C43.9882 22.0005 44.1291 21.5777 43.4244 21.0139C39.6188 19.4635 35.8133 18.0541 31.8668 16.5037C31.4439 16.3627 31.0211 16.3627 30.7392 16.5037C30.3164 16.6446 30.0345 16.9265 30.0345 17.2084C30.0345 17.4903 30.3164 17.7722 30.5983 17.9131C32.4306 18.6178 34.2629 19.3226 36.0951 20.0273C30.4573 20.0273 24.8195 20.0273 19.1816 20.0273" stroke="#231F20" stroke-width="0.5" stroke-linecap="round" stroke-linejoin="round"/>
<path d="M22.5647 42.7201V21.8602L1 11.4302V32.2902L22.5647 42.7201Z" fill="#FFFF00" stroke="#231F20" stroke-linejoin="round"/>
</svg>
